name C:\Users\u0101727\Documents\MyRepositories\upper-imu-dc\Results\main_mocap_tracking\Case_13\FLX01_linearAccelerations_groundFrame.mot
datacolumns 4
datarows 100
range 1.510000 2.500000
endheader 
time	radius_imu_x	radius_imu_y	radius_imu_z	
          1.51000000	         -2.05916082	          9.49335353	          2.69192132	
          1.52000000	         -1.98231953	          9.65812400	          2.76547365	
          1.53000000	         -1.87723927	          9.78301135	          2.74526239	
          1.54000000	         -1.75527216	          9.87351845	          2.66228635	
          1.55000000	         -1.61877801	          9.92598894	          2.51248181	
          1.56000000	         -1.47377291	          9.94706796	          2.29377938	
          1.57000000	         -1.32526303	          9.93888572	          2.00256682	
          1.58000000	         -1.18104396	          9.90726388	          1.65407003	
          1.59000000	         -1.04728423	          9.85970230	          1.27524218	
          1.60000000	         -0.92700891	          9.80426581	          0.89618358	
          1.61000000	         -0.82047794	          9.74954219	          0.54888196	
          1.62000000	         -0.73424966	          9.70560415	          0.26903196	
          1.63000000	         -0.67716946	          9.68297325	          0.08655798	
          1.64000000	         -0.65528321	          9.68251920	          0.00156321	
          1.65000000	         -0.66734523	          9.69908155	         -0.01919171	
          1.66000000	         -0.70194475	          9.72020002	         -0.03035909	
          1.67000000	         -0.74347806	          9.73332389	         -0.08112359	
          1.68000000	         -0.78260219	          9.73449199	         -0.18127252	
          1.69000000	         -0.82012300	          9.73034802	         -0.29599755	
          1.70000000	         -0.86338970	          9.73221003	         -0.36898137	
          1.71000000	         -0.91655165	          9.74658932	         -0.36224793	
          1.72000000	         -0.97448166	          9.77055604	         -0.27868670	
          1.73000000	         -1.02381187	          9.79389495	         -0.15647789	
          1.74000000	         -1.04917108	          9.80511393	         -0.04468279	
          1.75000000	         -1.04214776	          9.79893917	          0.02817365	
          1.76000000	         -1.00803837	          9.78147191	          0.07468654	
          1.77000000	         -0.96379607	          9.76806612	          0.13885318	
          1.78000000	         -0.92847426	          9.77525200	          0.26321790	
          1.79000000	         -0.91478293	          9.81327986	          0.46205301	
          1.80000000	         -0.92615911	          9.88239857	          0.71576253	
          1.81000000	         -0.95822440	          9.97280642	          0.98303420	
          1.82000000	         -1.00345824	         10.06925473	          1.22343482	
          1.83000000	         -1.05553727	         10.15778785	          1.41480191	
          1.84000000	         -1.10862049	         10.22791213	          1.55002457	
          1.85000000	         -1.15397302	         10.26965841	          1.62227228	
          1.86000000	         -1.18058706	         10.27255267	          1.62053450	
          1.87000000	         -1.18022477	         10.22966745	          1.53898089	
          1.88000000	         -1.15218403	         10.14300950	          1.38780894	
          1.89000000	         -1.10382980	         10.02486296	          1.19425216	
          1.90000000	         -1.04519022	          9.89223227	          0.98985352	
          1.91000000	         -0.98214918	          9.75924217	          0.79561798	
          1.92000000	         -0.91575117	          9.63548257	          0.62130677	
          1.93000000	         -0.84691454	          9.52921439	          0.47496403	
          1.94000000	         -0.77871089	          9.44738846	          0.36470251	
          1.95000000	         -0.71194721	          9.38943888	          0.28637860	
          1.96000000	         -0.63947745	          9.34184058	          0.21221657	
          1.97000000	         -0.54807767	          9.28222101	          0.09871021	
          1.98000000	         -0.42763179	          9.19165595	         -0.08916850	
          1.99000000	         -0.27991742	          9.06605589	         -0.35516689	
          2.00000000	         -0.12062979	          8.91912882	         -0.66477357	
          2.01000000	          0.02748002	          8.77540696	         -0.95931106	
          2.02000000	          0.14430862	          8.66010477	         -1.18017271	
          2.03000000	          0.21679660	          8.59303009	         -1.28685876	
          2.04000000	          0.23990031	          8.58490866	         -1.26768288	
          2.05000000	          0.21825211	          8.63349580	         -1.14486012	
          2.06000000	          0.16564998	          8.72294270	         -0.96693565	
          2.07000000	          0.10001024	          8.82946866	         -0.78847057	
          2.08000000	          0.03533814	          8.93163000	         -0.64729444	
          2.09000000	         -0.02586522	          9.01987888	         -0.55034017	
          2.10000000	         -0.09327349	          9.09827547	         -0.47712734	
          2.11000000	         -0.17774995	          9.17512852	         -0.40206141	
          2.12000000	         -0.27599981	          9.25000187	         -0.31964067	
          2.13000000	         -0.36539857	          9.30950291	         -0.25154734	
          2.14000000	         -0.41320226	          9.33510485	         -0.23314400	
          2.15000000	         -0.39236527	          9.31570648	         -0.29258217	
          2.16000000	         -0.29584682	          9.25665697	         -0.43300485	
          2.17000000	         -0.14427411	          9.18079984	         -0.62292658	
          2.18000000	          0.01797184	          9.12052802	         -0.80136346	
          2.19000000	          0.13949305	          9.10422546	         -0.90154701	
          2.20000000	          0.18180779	          9.14555611	         -0.88099589	
          2.21000000	          0.12912189	          9.24214837	         -0.73657925	
          2.22000000	         -0.01395351	          9.38126219	         -0.49804662	
          2.23000000	         -0.22927647	          9.54606414	         -0.21050785	
          2.24000000	         -0.49124072	          9.71953638	          0.08232150	
          2.25000000	         -0.77116367	          9.88625814	          0.34832047	
          2.26000000	         -1.04083555	         10.03291772	          0.57011683	
          2.27000000	         -1.27554313	         10.14813684	          0.74331916	
          2.28000000	         -1.45594237	         10.22212989	          0.87228414	
          2.29000000	         -1.56846429	         10.24671600	          0.96527782	
          2.30000000	         -1.60404989	         10.21534820	          1.02947681	
          2.31000000	         -1.55593990	         10.12280729	          1.06629501	
          2.32000000	         -1.41816855	          9.96518291	          1.06845853	
          2.33000000	         -1.18627827	          9.74129990	          1.02060381	
          2.34000000	         -0.86083967	          9.45605960	          0.90468434	
          2.35000000	         -0.45306093	          9.12458955	          0.71002727	
          2.36000000	          0.00977536	          8.77455454	          0.44530709	
          2.37000000	          0.48236660	          8.44391318	          0.14683774	
          2.38000000	          0.90731584	          8.17300129	         -0.12512907	
          2.39000000	          1.23095876	          7.99318025	         -0.30734765	
          2.40000000	          1.42083655	          7.91851236	         -0.36160423	
          2.41000000	          1.47202064	          7.94553455	         -0.28927781	
          2.42000000	          1.40151764	          8.05873118	         -0.12520880	
          2.43000000	          1.23975038	          8.23616057	          0.07911260	
          2.44000000	          1.02329591	          8.45330523	          0.27240876	
          2.45000000	          0.78804689	          8.68594708	          0.41558525	
          2.46000000	          0.56322311	          8.91245556	          0.48702699	
          2.47000000	          0.36827612	          9.11523908	          0.48127595	
          2.48000000	          0.21304229	          9.28121621	          0.40474748	
          2.49000000	          0.10243674	          9.40041878	          0.27239086	
          2.50000000	          0.02621919	          9.47352541	          0.10291521	
